<?xml version="1.0" encoding="UTF-8"?>
<svg width="365px" height="84px" viewBox="0 0 365 84" version="1.1" xmlns="http://www.w3.org/2000/svg" xmlns:xlink="http://www.w3.org/1999/xlink">
    <!-- Generator: Sketch 51.3 (57544) - http://www.bohemiancoding.com/sketch -->
    <title>logo</title>
    <desc>Created with Sketch.</desc>
    <defs></defs>
    <g id="Page-1" stroke="none" stroke-width="1" fill="none" fill-rule="evenodd">
        <g id="Group-2" transform="translate(1.000000, 0.000000)">
            <path d="M82.3932721,3.66 L108.673272,3.66 C114.133299,3.66 118.738253,5.4299823 122.488272,8.97 C126.238291,12.5100177 128.113272,17.2499703 128.113272,23.19 C128.113272,29.2500303 126.148292,34.2299805 122.218272,38.13 C118.288252,42.0300195 112.783307,43.98 105.703272,43.98 L92.2932721,43.98 L92.2932721,66.66 L82.3932721,66.66 L82.3932721,3.66 Z M92.2932721,35.25 L106.063272,35.25 C109.72329,35.25 112.603262,34.1700108 114.703272,32.01 C116.803283,29.8499892 117.853272,27.1500162 117.853272,23.91 C117.853272,20.3699823 116.863282,17.5650103 114.883272,15.495 C112.903262,13.4249896 110.293288,12.39 107.053272,12.39 L92.2932721,12.39 L92.2932721,35.25 Z M170.113272,66.66 L160.483272,66.66 C160.423272,66.3599985 160.393272,65.8500036 160.393272,65.13 C160.333272,64.4699967 160.303272,63.2700087 160.303272,61.53 C156.463253,65.3700192 151.183306,67.29 144.463272,67.29 C139.603248,67.29 135.598288,65.9700132 132.448272,63.33 C129.298256,60.6899868 127.723272,57.0300234 127.723272,52.35 C127.723272,49.8899877 128.188267,47.7450091 129.118272,45.915 C130.048277,44.0849908 131.263265,42.6600051 132.763272,41.64 C134.26328,40.6199949 135.688265,39.8700024 137.038272,39.39 C138.388279,38.9099976 139.783265,38.5500012 141.223272,38.31 C148.063306,37.3499952 151.813269,36.8100006 152.473272,36.69 C153.493277,36.5699994 155.983252,36.2400027 159.943272,35.7 L159.943272,33.81 C159.943272,31.0499862 159.238279,28.9350073 157.828272,27.465 C156.418265,25.9949926 153.733292,25.26 149.773272,25.26 C147.613261,25.26 145.813279,25.4999976 144.373272,25.98 C142.933265,26.4600024 141.868276,27.1499955 141.178272,28.05 C140.488269,28.9500045 140.008273,29.7749963 139.738272,30.525 C139.468271,31.2750037 139.303272,32.1599949 139.243272,33.18 L129.613272,33.18 C129.613272,31.7399928 129.763271,30.3600066 130.063272,29.04 C130.363274,27.7199934 130.948268,26.3400072 131.818272,24.9 C132.688276,23.4599928 133.828265,22.2000054 135.238272,21.12 C136.648279,20.0399946 138.58326,19.1550034 141.043272,18.465 C143.503284,17.7749966 146.353256,17.43 149.593272,17.43 C162.853338,17.43 169.483272,22.829946 169.483272,33.63 L169.483272,59.01 C169.483272,62.9700198 169.69327,65.5199943 170.113272,66.66 Z M159.943272,48.39 L159.943272,43.17 L154.543272,43.89 L145.723272,45.24 C140.263245,46.1400045 137.533272,48.5099808 137.533272,52.35 C137.533272,54.2700096 138.238265,55.9799925 139.648272,57.48 C141.058279,58.9800075 143.233257,59.73 146.173272,59.73 C150.733295,59.73 154.303259,58.530012 156.883272,56.13 C158.923282,54.0899898 159.943272,51.5100156 159.943272,48.39 Z M215.983272,35.25 L206.173272,35.25 C205.333268,28.649967 201.703304,25.35 195.283272,25.35 C191.323252,25.35 188.188284,26.7299862 185.878272,29.49 C183.568261,32.2500138 182.413272,36.5099712 182.413272,42.27 C182.413272,47.9700285 183.59826,52.2449858 185.968272,55.095 C188.338284,57.9450142 191.413253,59.37 195.193272,59.37 C198.433288,59.37 201.028262,58.4850088 202.978272,56.715 C204.928282,54.9449911 206.023271,52.5300153 206.263272,49.47 L216.073272,49.47 C215.353268,55.3500294 213.20829,59.789985 209.638272,62.79 C206.068254,65.790015 201.283302,67.29 195.283272,67.29 C188.443238,67.29 182.953293,65.1150217 178.813272,60.765 C174.673251,56.4149782 172.603272,50.2200402 172.603272,42.18 C172.603272,34.1999601 174.688251,28.0800213 178.858272,23.82 C183.028293,19.5599787 188.503238,17.43 195.283272,17.43 C201.103301,17.43 205.858254,18.9749845 209.548272,22.065 C213.238291,25.1550155 215.383269,29.5499715 215.983272,35.25 Z M262.243272,44.43 L227.683272,44.43 C227.863273,48.6900213 228.973262,52.2449858 231.013272,55.095 C233.053282,57.9450142 236.353249,59.37 240.913272,59.37 C244.51329,59.37 247.273262,58.4100096 249.193272,56.49 C251.113282,54.5699904 252.223271,52.4700114 252.523272,50.19 L261.883272,50.37 C261.763271,51.6300063 261.523274,52.9199934 261.163272,54.24 C260.80327,55.5600066 260.113277,57.0299919 259.093272,58.65 C258.073267,60.2700081 256.828279,61.6949939 255.358272,62.925 C253.888265,64.1550061 251.878285,65.1899958 249.328272,66.03 C246.778259,66.8700042 243.883288,67.29 240.643272,67.29 C233.743238,67.29 228.223293,65.1150217 224.083272,60.765 C219.943251,56.4149782 217.873272,50.2800396 217.873272,42.36 C217.873272,34.7999622 219.973251,28.7550227 224.173272,24.225 C228.373293,19.6949773 233.833238,17.43 240.553272,17.43 C247.633307,17.43 253.108253,19.7699766 256.978272,24.45 C260.848291,29.1300234 262.603274,35.7899568 262.243272,44.43 Z M228.043272,36.96 L252.163272,36.96 C252.043271,32.8799796 250.888283,29.9100093 248.698272,28.05 C246.508261,26.1899907 243.763289,25.26 240.463272,25.26 C236.983255,25.26 234.148283,26.2949896 231.958272,28.365 C229.768261,30.4350103 228.463274,33.2999817 228.043272,36.96 Z M293.473272,27.78 L290.323272,27.78 C285.643249,27.78 282.148284,28.7399904 279.838272,30.66 C277.528261,32.5800096 276.373272,35.7599778 276.373272,40.2 L276.373272,66.66 L266.833272,66.66 L266.833272,18.06 L276.193272,18.06 L276.193272,25.8 C277.633279,23.0399862 279.643259,21.060006 282.223272,19.86 C284.803285,18.659994 287.413259,18.06 290.053272,18.06 L293.473272,18.06 L293.473272,27.78 Z M303.093272,66.66 L292.203272,66.66 L292.203272,55.32 L303.093272,55.32 L303.093272,66.66 Z M319.293272,9.96 L309.753272,9.96 L309.753272,0.06 L319.293272,0.06 L319.293272,9.96 Z M319.293272,18.06 L319.293272,70.98 C319.293272,75.6000231 318.54328,78.9149899 317.043272,80.925 C315.543265,82.93501 312.453295,83.94 307.773272,83.94 C305.733262,83.94 304.323276,83.9100003 303.543272,83.85 C302.583267,83.85 301.893274,83.8200003 301.473272,83.76 L301.473272,76.11 C301.773274,76.1700003 302.223269,76.2 302.823272,76.2 L305.613272,76.2 C307.353281,76.2 308.47827,75.9450025 308.988272,75.435 C309.498275,74.9249974 309.753272,73.6800099 309.753272,71.7 L309.753272,18.06 L319.293272,18.06 Z M363.123272,31.74 L353.673272,31.74 C353.25327,27.2999778 349.923303,25.08 343.683272,25.08 C341.163259,25.08 338.868282,25.5449953 336.798272,26.475 C334.728262,27.4050046 333.693272,28.9799889 333.693272,31.2 C333.693272,33.8400132 335.373255,35.5799958 338.733272,36.42 C339.873278,36.7200015 341.508261,37.0199985 343.638272,37.32 C345.768283,37.6200015 347.643264,37.8899988 349.263272,38.13 C350.88328,38.3700012 352.668262,38.8049969 354.618272,39.435 C356.568282,40.0650031 358.173266,40.8449953 359.433272,41.775 C360.693278,42.7050046 361.758268,44.0399913 362.628272,45.78 C363.498276,47.5200087 363.933272,49.5599883 363.933272,51.9 C363.933272,53.7600093 363.618275,55.5149917 362.988272,57.165 C362.358269,58.8150082 361.308279,60.434992 359.838272,62.025 C358.368265,63.615008 356.178287,64.8899952 353.268272,65.85 C350.358258,66.8100048 346.863292,67.29 342.783272,67.29 C337.143244,67.29 332.50829,65.9400135 328.878272,63.24 C325.248254,60.5399865 323.373273,56.7600243 323.253272,51.9 L333.153272,51.9 C333.153272,54.0600108 333.978264,55.8899925 335.628272,57.39 C337.27828,58.8900075 339.843255,59.64 343.323272,59.64 C347.103291,59.64 349.878263,58.9500069 351.648272,57.57 C353.418281,56.1899931 354.303272,54.5700093 354.303272,52.71 C354.303272,51.1499922 353.868276,49.965004 352.998272,49.155 C352.128268,48.3449959 350.673282,47.7000024 348.633272,47.22 C347.493266,46.9199985 345.873283,46.6350013 343.773272,46.365 C341.673262,46.0949986 339.82828,45.8400012 338.238272,45.6 C336.648264,45.3599988 334.923281,44.9250032 333.063272,44.295 C331.203263,43.6649968 329.673278,42.8850046 328.473272,41.955 C327.273266,41.0249953 326.253276,39.6900087 325.413272,37.95 C324.573268,36.2099913 324.153272,34.140012 324.153272,31.74 C324.153272,27.539979 325.908255,24.1050133 329.418272,21.435 C332.92829,18.7649866 337.803241,17.43 344.043272,17.43 C347.103287,17.43 349.80326,17.7899964 352.143272,18.51 C354.483284,19.2300036 356.313265,20.0999949 357.633272,21.12 C358.953279,22.1400051 360.048268,23.3399931 360.918272,24.72 C361.788276,26.1000069 362.358271,27.3299946 362.628272,28.41 C362.898273,29.4900054 363.063272,30.5999943 363.123272,31.74 Z" id="Pacer.js" fill="#000000"></path>
            <g id="Group" fill-rule="nonzero" stroke="#000000">
                <polygon id="Path" fill="#F8CA1C" stroke-linejoin="bevel" points="6.02267716 41.4170026 8.75747263 54.6067943 20.0586888 54.6067943 20.0586888 11.629361 16.1136509 9.74598139"></polygon>
                <polygon id="Path-2" fill="#F8CA1C" stroke-linejoin="bevel" points="16.1168586 9.7991376 12.8848692 2.05757681 20.0137588 2.05757681 20.0137588 11.7008469"></polygon>
                <rect id="Rectangle" fill="#788293" stroke-linejoin="bevel" x="20.0920918" y="2.05757681" width="33.5680343" height="9.85704513"></rect>
                <rect id="Rectangle-3" fill="#FFFFFF" stroke-linejoin="bevel" x="20.0920918" y="11.9146219" width="33.5680343" height="24.4131159"></rect>
                <rect id="Rectangle-2" fill="#E3FAF7" stroke-linejoin="bevel" x="23.1437313" y="14.9662614" width="27.4647553" height="18.3098369" rx="2"></rect>
                <rect id="Rectangle-4" fill="#0E2751" stroke-linejoin="bevel" x="20.0920918" y="41.3133534" width="33.5680343" height="13.3242213"></rect>
                <rect id="Rectangle-4" fill="#D0021B" stroke-linejoin="bevel" x="20.0920918" y="36.3277378" width="33.5680343" height="4.98561559"></rect>
                <path d="M8.80102574,41.3458731 L19.7869279,41.3458731" id="Line" stroke-linecap="square" stroke-linejoin="bevel"></path>
                <rect id="Rectangle-5" fill="#0E2751" stroke-linejoin="bevel" x="20.0920918" y="54.6375747" width="33.5680343" height="9.15491845"></rect>
                <rect id="Rectangle-6" fill="#F8CA1C" stroke-linejoin="bevel" x="8.67473197" y="54.6375747" width="11.4173599" height="3.66196738"></rect>
                <rect id="Rectangle-7" fill="#372F2F" stroke-linejoin="bevel" x="7.27520599" y="58.2995421" width="12.8168858" height="5.49295107"></rect>
                <polygon id="Path-3" fill="#4E4343" stroke-linejoin="bevel" points="15.1050576 63.8612968 15.1050576 71.9346257 50.6363196 71.9346257 53.6268649 71.2284729 53.6268649 63.8612968"></polygon>
                <polygon id="Path-4" fill="#4E4343" stroke-linejoin="bevel" points="7.3020257 62.3591755 3.6613499 62.3591755 3.6613499 71.3214962 8.66261629 71.3214962 8.66261629 68.4409794 15.0787097 68.4409794 15.0787097 63.7874251 7.3020257 63.7874251"></polygon>
                <path d="M0.145249745,62.3591755 L3.61323862,62.3591755 L3.61323862,71.3214962 L3.51017825,71.3214962 C2.7499793,71.3214962 2.16887008,71.1822578 1.67998119,70.9207972 C1.1910923,70.6593365 0.80740944,70.2756537 0.545948801,69.7867648 C0.284488162,69.2978759 0.145249745,68.7167667 0.145249745,67.9565677 L0.145249745,62.3591755 Z" id="Rectangle-8" fill="#4E4343" stroke-linejoin="bevel"></path>
                <path d="M23.4488952,29.308967 L50.3033227,29.308967" id="Line-2" stroke-linecap="square" stroke-linejoin="bevel"></path>
                <path d="M36.876109,15.2714254 L36.876109,29.308967" id="Line-3" stroke-linecap="square" stroke-linejoin="bevel"></path>
                <path d="M8.68690318,33.444029 L9.16453176,33.6352288 C9.67726035,33.8404794 10.2592975,33.5912193 10.4645482,33.0784907 C10.4734892,33.0561556 10.4816212,33.0335052 10.4889285,33.0105835 L15.7300119,16.5701648 C16.1511392,15.2491577 16.1017616,13.82307 15.5902741,12.5343542 L15.4551554,12.1939166 L8.68690318,33.444029 Z" id="Path-5" fill="#E3FAF7" stroke-linejoin="bevel"></path>
                <path d="M53.6468366,2.06085361 L61.6468366,2.06085361" id="Line-4" stroke-linecap="square"></path>
                <path d="M53.6468366,11.9508469 L61.6468366,11.9508469" id="Line-4" stroke-linecap="square"></path>
                <path d="M53.6468366,36.3228522 L61.6468366,36.3228522" id="Line-4" stroke-linecap="square"></path>
                <path d="M53.6468366,54.6318604 L61.6468366,54.6318604" id="Line-4" stroke-linecap="square"></path>
                <path d="M53.6468366,63.8336178 L61.6468366,63.8336178" id="Line-4" stroke-linecap="square"></path>
                <path d="M62.6468366,2.06085361 L70.6468366,2.06085361" id="Line-4" stroke-linecap="square" stroke-dasharray="1,2"></path>
                <path d="M62.6468366,11.9508469 L70.6468366,11.9508469" id="Line-4" stroke-linecap="square" stroke-dasharray="1,2"></path>
                <path d="M62.6468366,36.3228522 L70.6468366,36.3228522" id="Line-4" stroke-linecap="square" stroke-dasharray="1,2"></path>
                <path d="M53.6468366,41.3228522 L61.6468366,41.3228522" id="Line-4" stroke-linecap="square"></path>
                <path d="M62.6468366,41.3228522 L70.6468366,41.3228522" id="Line-4" stroke-linecap="square" stroke-dasharray="1,2"></path>
                <path d="M62.6468366,54.6318604 L70.6468366,54.6318604" id="Line-4" stroke-linecap="square" stroke-dasharray="1,2"></path>
                <path d="M62.6468366,63.8336178 L70.6468366,63.8336178" id="Line-4" stroke-linecap="square" stroke-dasharray="1,2"></path>
                <path d="M53.2470526,71.3177197 L63.638566,68.9840024" id="Line-5" stroke-linecap="square"></path>
                <path d="M59.9253316,69.8177197 L70.316845,67.4840024" id="Line-5" stroke-linecap="square" stroke-dasharray="1,2"></path>
            </g>
        </g>
    </g>
</svg>